<?xml version="1.0" standalone="no"?>
<!DOCTYPE svg PUBLIC "-//W3C//DTD SVG 1.0//EN" "http://www.w3.org/TR/2001/REC-SVG-20010904/DTD/svg10.dtd">
<svg xmlns="http://www.w3.org/2000/svg" xmlns:xlink="http://www.w3.org/1999/xlink" id="body_1" width="288" height="157">

<defs>
    <clipPath  id="1">

    <path id=""  clip-rule="evenodd" transform="matrix(1 0 0 1 0 0)"  d="M0 118L0 0L0 0L216 0L216 0L216 118L216 118L0 118z" />    </clipPath>
    <clipPath  id="2">

    <path id=""  clip-rule="evenodd" transform="matrix(1 0 0 1 0 0)"  d="M0 118L216 118L216 118L216 0L216 0L0 0z" />    </clipPath>
    <clipPath  id="3">

    <path id=""  clip-rule="evenodd" transform="matrix(1 0 0 1 0 0)"  d="M0 0.26000214L0 118L0 118L216 118L216 118L216 0.26000214z" />    </clipPath>
</defs>

<g transform="matrix(1.3333 0 0 1.3333 0 0)">
	<g clip-path="url(#1)" >
		<g clip-path="url(#2)" >
			<g clip-path="url(#3)" >
    <path id=""  transform="matrix(1 0 0 -1 0 118)"  d="M149.087 49.0066C 150.337 49.8972 151.689 50.9392 152.952 51.935295C 162.674 59.7166 170.103 68.238495 171.569 72.9548C 171.622 73.1077 171.753 73.541794 171.753 73.88989C 171.753 74.37869 171.522 74.72 171.074 74.72C 166.617 74.72 152.29 60.461697 148.825 48.9216L148.825 48.9216L148.825 48.873795L148.825 48.873795L149.087 49.0066M113.187 50.644295C 126.725 60.8728 140.941 75.76199 142.46 81.8748C 142.511 82.075 142.558 82.2708 142.55 82.4568C 142.529 82.8567 142.313 83.2166 141.802 83.2166C 137.52 83.2166 117.677 64.9216 113.187 50.644295M30.0669 41.656998C 26.4922 44.135498 20.9619 46.303497 16.0288 46.303497C 11.2412 46.303497 8.17578 44.4255 8.17578 42.0515C 8.17578 39.323997 11.8931 38.1287 16.0552 38.1287C 21.1011 38.1287 25.6812 39.492897 30.0669 41.656998M71.5381 73.737595C 81.2422 76.8508 90.4482 83.3547 97.311 90.1487C 103.662 96.4348 108.741 103.901596 108.741 107.593994C 108.741 108.439705 108.137 108.94654 107.373 108.94654C 104.436 108.94654 98.8589 105.0447 91.3599 97.536896C 85.5181 91.6746 78.7129 83.6858 71.5381 73.737595M216 50.2752C 207.669 41.9832 181.693 19.183395 174.817 0L174.817 0L166.307 2.1889954C 169.087 10.137001 177.467 22.493896 186.805 32.031998C 184.819 31.280998 182.746 31.0027 181.085 31.0027C 178.56 31.0027 176.595 31.762497 175.418 33.1951C 174.568 34.221397 174.139 35.5711 174.139 37.165794C 174.139 37.510498 174.163 37.863 174.213 38.2527C 166.013 33.2595 159.411 31.0027 152.952 31.0027C 147.927 31.0027 143.689 33.1951 141.74 37.035896C 133.598 32.998795 125.791 31.0027 119.263 31.0027C 113.187 31.0027 108.289 33.406998 106.045 37.7937C 97.812 33.163795 90.812 31.0027 85.2388 31.0027C 82.0322 31.0027 79.4888 31.892296 77.854 33.572998C 76.6519 34.809296 76.0171 36.4822 75.9312 38.409897C 70.6509 34.934296 62.9482 31.0027 55.0352 31.0027C 46.957 31.0027 41.5278 33.7791 37.3242 36.5271C 30.6108 32.813194 23.228 31.0027 15.4199 31.0027C 9.51904 31.0027 0 33.4627 0 41.9216C 0 48.7556 7.12793 53.3787 16.6592 53.3787C 24.769 53.3787 32.5781 49.9607 37.481 46.4168C 42.1338 50.117897 47.0171 55.302498 52.7739 62.6228C 51.5078 62.556896 50.2739 62.522697 49.0571 62.522697C 38.0269 62.522697 28.8159 65.7708 23.791 71.46359C 21.0752 74.536896 19.793 78.1438 19.793 82.0227C 19.793 97.367 39.1631 109.26979 56.1128 111.01783C 57.2358 108.47877 58.2378 106.5237 59.27 104.193596C 42.5239 102.25169 28.5781 92.3396 28.5781 82.6546C 28.5781 76.2908 35.7368 69.8987 50.9229 69.8987C 53.5229 69.8987 56.1392 70.1438 58.7109 70.50369C 72.1172 89.0056 92.6641 117.74 110.339 117.74C 115.568 117.74 118.302 114.562744 118.302 110.30494C 118.302 101.5549 110.78 92.1389 105.881 87.2239C 98.1738 79.483696 84.2461 67.968994 64.7871 64.1546C 57.2148 53.6277 50.9922 46.642296 44.771 41.600395C 48.5459 39.561295 52.0771 38.3181 56.2969 38.3181C 66.769 38.3181 76.9268 47.909897 84.8652 56.032997L84.8652 56.032997L85.145 56.3015L85.145 56.3015L91.334 51.4666L91.334 51.4666L91.0488 51.1296C 87.5381 47.1072 84.3042 42.852295 84.3042 40.472397C 84.3042 38.661896 85.8311 38.303497 87.145 38.303497C 91.1592 38.303497 97.3369 40.8982 104.615 45.3748L104.615 45.3748L104.615 45.435295C 105.418 63.4158 129.953 90.9089 144.846 90.9089C 149.05 90.9089 151.469 88.818596 151.469 85.1428C 151.469 76.1336 135.918 56.803497 113.301 42.0222L113.301 42.0222L113.301 42.0086C 114.474 39.492897 117.166 38.28 121.736 38.28C 125.308 38.28 132.282 39.870895 140.578 44.207794C 141.54 53.5242 146.819 63.521698 153.508 70.6506C 160.225 77.7888 167.753 82.4319 174.262 82.4319C 178.273 82.4319 180.644 80.2166 180.644 76.7507C 180.644 68.8928 171.522 55.451897 149.536 41.3806C 150.509 39.492897 152.4 38.303497 155.334 38.303497C 161.88 38.303497 173.416 45.292694 182.404 53.887497L182.404 53.887497L188.852 48.873795C 186.099 45.531998 183.312 41.851295 183.401 39.739998C 183.426 39.057396 183.888 38.599396 184.971 38.599396C 191.592 38.599396 202.021 47.3396 209.839 55.055397L209.839 55.055397L216 50.2752zM96.123 68.30589C 99.0488 68.30589 101.41 65.9299 101.41 63.012897C 101.41 60.087696 99.0488 57.711697 96.123 57.711697C 93.1899 57.711697 90.8218 60.087696 90.8218 63.012897C 90.8218 65.9299 93.1899 68.30589 96.123 68.30589" stroke="none" fill="#DF0900" fill-rule="nonzero" />
			</g>
		</g>
	</g>
</g>
</svg>